<mxfile host="app.diagrams.net" modified="2024-06-17T08:26:50.066Z" agent="Mozilla/5.0 (Windows NT 10.0; Win64; x64) AppleWebKit/537.36 (KHTML, like Gecko) Chrome/126.0.0.0 Safari/537.36" etag="-b6_3FNgR13ZQDUT7GOH" version="24.5.4" type="device">
  <diagram name="Page-1" id="8JEIZ-sNYnwFvh2CF00-">
    <mxGraphModel dx="1050" dy="596" grid="1" gridSize="10" guides="1" tooltips="1" connect="1" arrows="1" fold="1" page="1" pageScale="1" pageWidth="827" pageHeight="1169" math="0" shadow="0">
      <root>
        <mxCell id="0" />
        <mxCell id="1" parent="0" />
        <mxCell id="Ln6fYQxwX7A_vQN8N_4Y-9" style="edgeStyle=orthogonalEdgeStyle;rounded=0;orthogonalLoop=1;jettySize=auto;html=1;exitX=0;exitY=0.5;exitDx=0;exitDy=0;" edge="1" parent="1" source="Ln6fYQxwX7A_vQN8N_4Y-1" target="Ln6fYQxwX7A_vQN8N_4Y-2">
          <mxGeometry relative="1" as="geometry" />
        </mxCell>
        <mxCell id="Ln6fYQxwX7A_vQN8N_4Y-10" style="edgeStyle=orthogonalEdgeStyle;rounded=0;orthogonalLoop=1;jettySize=auto;html=1;exitX=1;exitY=0.5;exitDx=0;exitDy=0;entryX=0.5;entryY=0;entryDx=0;entryDy=0;" edge="1" parent="1" source="Ln6fYQxwX7A_vQN8N_4Y-1" target="Ln6fYQxwX7A_vQN8N_4Y-3">
          <mxGeometry relative="1" as="geometry" />
        </mxCell>
        <mxCell id="Ln6fYQxwX7A_vQN8N_4Y-1" value="LabXplorerX" style="rounded=0;whiteSpace=wrap;html=1;" vertex="1" parent="1">
          <mxGeometry x="354" y="40" width="120" height="60" as="geometry" />
        </mxCell>
        <mxCell id="Ln6fYQxwX7A_vQN8N_4Y-11" style="edgeStyle=orthogonalEdgeStyle;rounded=0;orthogonalLoop=1;jettySize=auto;html=1;exitX=0.25;exitY=1;exitDx=0;exitDy=0;entryX=0.5;entryY=0;entryDx=0;entryDy=0;" edge="1" parent="1" source="Ln6fYQxwX7A_vQN8N_4Y-2" target="Ln6fYQxwX7A_vQN8N_4Y-4">
          <mxGeometry relative="1" as="geometry" />
        </mxCell>
        <mxCell id="Ln6fYQxwX7A_vQN8N_4Y-12" style="edgeStyle=orthogonalEdgeStyle;rounded=0;orthogonalLoop=1;jettySize=auto;html=1;exitX=0.75;exitY=1;exitDx=0;exitDy=0;entryX=0.5;entryY=0;entryDx=0;entryDy=0;" edge="1" parent="1" source="Ln6fYQxwX7A_vQN8N_4Y-2" target="Ln6fYQxwX7A_vQN8N_4Y-5">
          <mxGeometry relative="1" as="geometry" />
        </mxCell>
        <mxCell id="Ln6fYQxwX7A_vQN8N_4Y-2" value="User Management and Collabration" style="rounded=0;whiteSpace=wrap;html=1;" vertex="1" parent="1">
          <mxGeometry x="180" y="140" width="120" height="60" as="geometry" />
        </mxCell>
        <mxCell id="Ln6fYQxwX7A_vQN8N_4Y-13" style="edgeStyle=orthogonalEdgeStyle;rounded=0;orthogonalLoop=1;jettySize=auto;html=1;exitX=0.25;exitY=1;exitDx=0;exitDy=0;entryX=0.5;entryY=0;entryDx=0;entryDy=0;" edge="1" parent="1" source="Ln6fYQxwX7A_vQN8N_4Y-3" target="Ln6fYQxwX7A_vQN8N_4Y-6">
          <mxGeometry relative="1" as="geometry" />
        </mxCell>
        <mxCell id="Ln6fYQxwX7A_vQN8N_4Y-14" style="edgeStyle=orthogonalEdgeStyle;rounded=0;orthogonalLoop=1;jettySize=auto;html=1;exitX=0.75;exitY=1;exitDx=0;exitDy=0;entryX=0.5;entryY=0;entryDx=0;entryDy=0;" edge="1" parent="1" source="Ln6fYQxwX7A_vQN8N_4Y-3" target="Ln6fYQxwX7A_vQN8N_4Y-7">
          <mxGeometry relative="1" as="geometry" />
        </mxCell>
        <mxCell id="Ln6fYQxwX7A_vQN8N_4Y-3" value="Interactive Virtual Labs" style="rounded=0;whiteSpace=wrap;html=1;" vertex="1" parent="1">
          <mxGeometry x="540" y="140" width="120" height="60" as="geometry" />
        </mxCell>
        <mxCell id="Ln6fYQxwX7A_vQN8N_4Y-4" value="Discussion Forum" style="rounded=0;whiteSpace=wrap;html=1;" vertex="1" parent="1">
          <mxGeometry x="80" y="250" width="120" height="60" as="geometry" />
        </mxCell>
        <mxCell id="Ln6fYQxwX7A_vQN8N_4Y-5" value="Teachers Tools and Student&#39;s dashboard" style="rounded=0;whiteSpace=wrap;html=1;" vertex="1" parent="1">
          <mxGeometry x="280" y="250" width="120" height="60" as="geometry" />
        </mxCell>
        <mxCell id="Ln6fYQxwX7A_vQN8N_4Y-6" value="Sand Box Mode For creative experiments" style="rounded=0;whiteSpace=wrap;html=1;" vertex="1" parent="1">
          <mxGeometry x="450" y="250" width="120" height="60" as="geometry" />
        </mxCell>
        <mxCell id="Ln6fYQxwX7A_vQN8N_4Y-7" value="Pre-defined Experiments and Code Learning Platform" style="rounded=0;whiteSpace=wrap;html=1;" vertex="1" parent="1">
          <mxGeometry x="650" y="250" width="120" height="60" as="geometry" />
        </mxCell>
      </root>
    </mxGraphModel>
  </diagram>
</mxfile>
